<?xml version="1.0" standalone="no"?>
<!DOCTYPE svg PUBLIC "-//W3C//DTD SVG 20010904//EN"
 "http://www.w3.org/TR/2001/REC-SVG-20010904/DTD/svg10.dtd">
<svg version="1.0" xmlns="http://www.w3.org/2000/svg"
 width="100.000000pt" height="100.000000pt" viewBox="0 0 100.000000 100.000000"
 preserveAspectRatio="xMidYMid meet">

<g transform="translate(0.000000,100.000000) scale(0.100000,-0.100000)"
fill="#000000" stroke="none">
<path d="M195 950 c-11 -4 -31 -20 -45 -35 l-25 -27 -3 -379 c-3 -421 -3 -422
62 -453 29 -14 79 -16 365 -16 324 0 331 0 331 20 0 20 -7 20 -335 20 l-336 0
-24 25 c-33 32 -32 68 1 94 26 20 38 21 360 21 l334 0 0 370 0 370 -332 -1
c-183 0 -342 -4 -353 -9z m282 -245 c19 -13 24 -13 50 1 41 24 94 12 128 -28
50 -60 20 -132 -94 -225 -28 -24 -58 -43 -65 -43 -7 0 -42 27 -78 60 -96 88
-120 150 -77 204 36 46 96 59 136 31z"/>
</g>
</svg>
